<mxfile host="app.diagrams.net" modified="2023-09-24T07:08:08.024Z" agent="Mozilla/5.0 (Windows NT 10.0; Win64; x64) AppleWebKit/537.36 (KHTML, like Gecko) Chrome/117.0.0.0 Safari/537.36 Edg/117.0.2045.36" version="21.7.2" etag="c0KisTV0mDGZPDz8sedC" type="github">
  <diagram name="Page-1" id="rGKAn59SZi-jP4Fxl274">
    <mxGraphModel>
      <root>
        <mxCell id="0" />
        <mxCell id="1" parent="0" />
      </root>
    </mxGraphModel>
  </diagram>
</mxfile>
